<svg width="16" height="16" viewBox="0 0 16 16" fill="none" xmlns="http://www.w3.org/2000/svg">
<path fill-rule="evenodd" clip-rule="evenodd" d="M6.50886 5.11994C6.26072 5.36956 6.26072 5.77271 6.50886 6.02234L8.77446 8.31994L6.50886 10.5855C6.26072 10.8352 6.26072 11.2383 6.50886 11.4879C6.62903 11.6091 6.79261 11.6772 6.96326 11.6772C7.13391 11.6772 7.29749 11.6091 7.41766 11.4879L10.1313 8.77434C10.2524 8.65416 10.3206 8.49058 10.3206 8.31994C10.3206 8.14929 10.2524 7.98571 10.1313 7.86554L7.41766 5.11994C7.29749 4.99878 7.13391 4.93062 6.96326 4.93062C6.79261 4.93062 6.62903 4.99878 6.50886 5.11994Z" fill="#212B36"/>
</svg>