<svg width="16" height="16" viewBox="0 0 16 16" fill="none" xmlns="http://www.w3.org/2000/svg">
<path fill-rule="evenodd" clip-rule="evenodd" d="M9.49114 5.11994C9.73928 5.36956 9.73928 5.77271 9.49114 6.02234L7.22554 8.31994L9.49114 10.5855C9.73928 10.8352 9.73928 11.2383 9.49114 11.4879C9.37097 11.6091 9.20739 11.6772 9.03674 11.6772C8.86609 11.6772 8.70251 11.6091 8.58234 11.4879L5.86874 8.77434C5.74758 8.65416 5.67943 8.49058 5.67943 8.31994C5.67943 8.14929 5.74758 7.98571 5.86874 7.86554L8.58234 5.11994C8.70251 4.99878 8.86609 4.93062 9.03674 4.93062C9.20739 4.93062 9.37097 4.99878 9.49114 5.11994Z" fill="#212B36"/>
</svg>
